<svg xmlns="http://www.w3.org/2000/svg" width="330" height="330" viewBox="0 0 330 330"><g id="Block" transform="translate(-1276 -1402)"><g id="Ellipse_428" data-name="Ellipse 428" transform="translate(1276 1402)" fill="none" stroke="#424348" stroke-width="1"><circle cx="165" cy="165" r="165" stroke="none"></circle><circle cx="165" cy="165" r="164.5" fill="none"></circle></g><g id="Ellipse_429" data-name="Ellipse 429" transform="translate(1329 1455)" fill="none" stroke="#424348" stroke-width="1"><circle cx="112.5" cy="112.5" r="112.5" stroke="none"></circle><circle cx="112.5" cy="112.5" r="112" fill="none"></circle></g><g id="Group_9086" data-name="Group 9086" transform="translate(988.732 1284.208)"><g id="Group_9085" data-name="Group 9085" transform="translate(308.086 139.523)"><path id="Path_6836" data-name="Path 6836" d="M383.207,159.339l3.8-2.012a11.763,11.763,0,0,1,3.081-1.172,6.368,6.368,0,0,1,2.575-.052,4.677,4.677,0,0,1,2.057.983,6.277,6.277,0,0,1,1.526,1.931,6.175,6.175,0,0,1,.713,2.293,4.932,4.932,0,0,1-.316,2.29,6.446,6.446,0,0,1-1.45,2.169,10.678,10.678,0,0,1-2.683,1.925l-3.817,2.012Zm8.843,6.264a5.806,5.806,0,0,0,1.523-1.116,3.649,3.649,0,0,0,.82-1.314,3.182,3.182,0,0,0,.144-1.451,4.451,4.451,0,0,0-.505-1.533,4.277,4.277,0,0,0-.967-1.25,3.058,3.058,0,0,0-1.264-.664,3.679,3.679,0,0,0-1.533-.033,5.991,5.991,0,0,0-1.774.642l-2.215,1.173,3.556,6.718Z" transform="translate(-311.049 -140.173)" fill="#fff"></path><path id="Path_6837" data-name="Path 6837" d="M399.768,157.407a5.95,5.95,0,0,1-.423-2.444,5.518,5.518,0,0,1,.594-2.262,6.228,6.228,0,0,1,1.53-1.908,8.811,8.811,0,0,1,5.1-1.973,6.23,6.23,0,0,1,2.42.378,5.508,5.508,0,0,1,1.961,1.274,5.934,5.934,0,0,1,1.332,2.091,6.033,6.033,0,0,1,.429,2.461,5.577,5.577,0,0,1-.585,2.282,6.256,6.256,0,0,1-1.526,1.931,8.585,8.585,0,0,1-5.1,1.973,6.268,6.268,0,0,1-2.424-.4,5.591,5.591,0,0,1-1.97-1.294A6.045,6.045,0,0,1,399.768,157.407Zm2.219-.859a3.95,3.95,0,0,0,.9,1.408,3.594,3.594,0,0,0,1.295.83,4.106,4.106,0,0,0,1.567.243,5.484,5.484,0,0,0,3.212-1.244,4.053,4.053,0,0,0,.991-1.232,3.68,3.68,0,0,0,.4-1.486,3.93,3.93,0,0,0-.282-1.644,3.873,3.873,0,0,0-.9-1.4,3.543,3.543,0,0,0-1.286-.81,3.989,3.989,0,0,0-1.553-.215,5.79,5.79,0,0,0-3.212,1.242,4.053,4.053,0,0,0-1.006,1.206,3.482,3.482,0,0,0-.406,1.465A3.892,3.892,0,0,0,401.987,156.549Z" transform="translate(-311.686 -139.89)" fill="#fff"></path><path id="Path_6838" data-name="Path 6838" d="M415.428,145.452l2.307-.58,8.023,1.928-.935-3.712,2.307-.581,2.862,11.375-2.306.58-1.314-5.218-8.017-1.906,2.242,8.908-2.306.58Z" transform="translate(-312.32 -139.641)" fill="#fff"></path><path id="Path_6839" data-name="Path 6839" d="M433.459,140.774l1.9-.3.825,5.2-1.9.3Z" transform="translate(-313.032 -139.56)" fill="#fff"></path><path id="Path_6840" data-name="Path 6840" d="M445.143,142.126l-4.317.338-.162-2.08,11.005-.862.162,2.08-4.317.338.753,9.613-2.372.186Z" transform="translate(-313.316 -139.523)" fill="#fff"></path><path id="Path_6841" data-name="Path 6841" d="M470.78,139.871l2.359.305,3.678,4.789,4.777-3.694,2.359.305-1.506,11.632-2.36-.305,1.083-8.365-4.754,3.523-3.7-4.618-1.083,8.365-2.359-.305Z" transform="translate(-314.444 -139.537)" fill="#fff"></path><path id="Path_6842" data-name="Path 6842" d="M489.47,142.78l2.338.517-2.533,11.453-2.338-.517Z" transform="translate(-315.141 -139.651)" fill="#fff"></path><path id="Path_6843" data-name="Path 6843" d="M494.914,152.5a14.458,14.458,0,0,0,1.042,1.006,10.211,10.211,0,0,0,1.156.87,10.606,10.606,0,0,0,1.324.732,12.3,12.3,0,0,0,1.548.593,10,10,0,0,0,1.761.4,4.413,4.413,0,0,0,1.271,0,1.726,1.726,0,0,0,.825-.352,1.352,1.352,0,0,0,.424-.639,1.167,1.167,0,0,0-.208-1.122,2.9,2.9,0,0,0-1.458-.844,8.654,8.654,0,0,0-1-.245c-.357-.067-.719-.131-1.084-.193s-.726-.125-1.08-.191a8.37,8.37,0,0,1-.983-.24,5.556,5.556,0,0,1-1.383-.644,3.99,3.99,0,0,1-1.044-.962,3.007,3.007,0,0,1-.548-1.232,2.933,2.933,0,0,1,.107-1.452,3.565,3.565,0,0,1,.41-.87,3.116,3.116,0,0,1,.67-.739,3.687,3.687,0,0,1,.953-.545,4.487,4.487,0,0,1,1.247-.282,7.28,7.28,0,0,1,1.559.042,11.047,11.047,0,0,1,1.9.43,14.605,14.605,0,0,1,1.486.554q.733.318,1.406.694t1.274.794a12.01,12.01,0,0,1,1.093.856l-1.568,1.523a11.092,11.092,0,0,0-.9-.7q-.49-.346-1.044-.66t-1.165-.588a11.6,11.6,0,0,0-1.269-.478,7.61,7.61,0,0,0-1.587-.345,3.49,3.49,0,0,0-1.071.047,1.332,1.332,0,0,0-.646.317,1.156,1.156,0,0,0-.3.475,1.015,1.015,0,0,0,.2.962,2.51,2.51,0,0,0,1.276.748,8.336,8.336,0,0,0,.873.213q.5.1,1.054.2t1.127.221c.381.08.746.175,1.094.282a6.586,6.586,0,0,1,1.683.769,3.836,3.836,0,0,1,1.081,1.033,2.8,2.8,0,0,1,.471,1.239,3.277,3.277,0,0,1-.142,1.39,3.482,3.482,0,0,1-.986,1.584,3.964,3.964,0,0,1-1.673.877,6.774,6.774,0,0,1-2.241.166,12.217,12.217,0,0,1-2.684-.543,14.987,14.987,0,0,1-1.812-.694,14.476,14.476,0,0,1-1.625-.877,13.412,13.412,0,0,1-1.413-1.014,12.1,12.1,0,0,1-1.178-1.1Z" transform="translate(-315.385 -139.76)" fill="#fff"></path><path id="Path_6844" data-name="Path 6844" d="M511.254,158a14.307,14.307,0,0,0,.912,1.125,10.3,10.3,0,0,0,1.039,1.007,10.987,10.987,0,0,0,1.226.888,12.28,12.28,0,0,0,1.464.778,10,10,0,0,0,1.7.617,4.436,4.436,0,0,0,1.262.151,1.723,1.723,0,0,0,.862-.249,1.349,1.349,0,0,0,.5-.581,1.171,1.171,0,0,0-.069-1.139,2.907,2.907,0,0,0-1.345-1.017,8.8,8.8,0,0,0-.962-.365q-.519-.164-1.053-.324t-1.048-.323a8.555,8.555,0,0,1-.946-.357,5.59,5.59,0,0,1-1.294-.809,3.988,3.988,0,0,1-.918-1.083,3.007,3.007,0,0,1-.393-1.289,2.939,2.939,0,0,1,.284-1.429,3.544,3.544,0,0,1,.512-.814,3.107,3.107,0,0,1,.757-.65,3.641,3.641,0,0,1,1.011-.425,4.47,4.47,0,0,1,1.274-.128,7.321,7.321,0,0,1,1.542.232,11.059,11.059,0,0,1,1.831.66,14.394,14.394,0,0,1,1.407.732q.689.406,1.311.861t1.166.944a12.264,12.264,0,0,1,.981.983l-1.742,1.321a11.174,11.174,0,0,0-.806-.8,12.341,12.341,0,0,0-.955-.783q-.513-.38-1.084-.725a11.476,11.476,0,0,0-1.2-.63,7.588,7.588,0,0,0-1.532-.538,3.533,3.533,0,0,0-1.07-.084,1.335,1.335,0,0,0-.679.235,1.146,1.146,0,0,0-.357.435,1.011,1.011,0,0,0,.076.978,2.5,2.5,0,0,0,1.175.9,8.139,8.139,0,0,0,.841.319q.484.157,1.022.327t1.09.357q.553.189,1.052.414a6.6,6.6,0,0,1,1.576.969,3.841,3.841,0,0,1,.946,1.157,2.8,2.8,0,0,1,.315,1.287,3.271,3.271,0,0,1-.311,1.363,3.475,3.475,0,0,1-1.172,1.45,3.958,3.958,0,0,1-1.767.666,6.761,6.761,0,0,1-2.245-.11,12.168,12.168,0,0,1-2.6-.866,14.871,14.871,0,0,1-1.713-.912,14.416,14.416,0,0,1-1.506-1.068,13.734,13.734,0,0,1-1.277-1.18,12.14,12.14,0,0,1-1.035-1.238Z" transform="translate(-316.023 -139.998)" fill="#fff"></path><path id="Path_6845" data-name="Path 6845" d="M544,169.057l-3.5-2.55,1.229-1.686,8.923,6.5-1.229,1.686-3.5-2.549-5.678,7.794-1.923-1.4Z" transform="translate(-317.168 -140.521)" fill="#fff"></path><path id="Path_6846" data-name="Path 6846" d="M554.581,174.611l1.755,1.606-2.067,2.259,5.38,4.925,2.068-2.258,1.76,1.611-7.92,8.652-1.76-1.611,4.479-4.893-5.38-4.926-4.48,4.894-1.755-1.606Z" transform="translate(-317.497 -140.907)" fill="#fff"></path><path id="Path_6847" data-name="Path 6847" d="M567.721,187.206l6.57,7.524-1.572,1.372-5-5.732-1.764,1.54,4.432,5.077-1.475,1.288-4.432-5.077-2.459,2.147,5.108,5.852-1.566,1.367-6.673-7.643Z" transform="translate(-317.979 -141.404)" fill="#fff"></path><path id="Path_6848" data-name="Path 6848" d="M585.473,210.436l3.106,5.442a7.31,7.31,0,0,1,.779,1.859,4.228,4.228,0,0,1,.117,1.561,2.7,2.7,0,0,1-.468,1.23,3,3,0,0,1-.969.868,2.956,2.956,0,0,1-2.052.358,3.1,3.1,0,0,1-.482,1.667,3.722,3.722,0,0,1-1.316,1.208,3.825,3.825,0,0,1-1.42.495,2.91,2.91,0,0,1-1.394-.164,3.867,3.867,0,0,1-1.325-.868,7.123,7.123,0,0,1-1.213-1.619l-3.551-6.224ZM580.665,221.5a2.242,2.242,0,0,0,1.082,1.063,1.421,1.421,0,0,0,1.257-.143,1.446,1.446,0,0,0,.77-1.013,2.221,2.221,0,0,0-.358-1.476l-2.4-4.21-2.751,1.569Zm4.456-2.593c.1.179.194.355.278.533a1.48,1.48,0,0,0,1.2-.107,1.136,1.136,0,0,0,.61-.923,2.534,2.534,0,0,0-.421-1.44l-1.956-3.428-2.092,1.193Z" transform="translate(-318.626 -142.32)" fill="#fff"></path><path id="Path_6849" data-name="Path 6849" d="M593.182,224.735,594.2,226.9l-10.617,4.984-1.017-2.167Z" transform="translate(-318.913 -142.884)" fill="#fff"></path><path id="Path_6850" data-name="Path 6850" d="M590.772,232.888a5.766,5.766,0,0,1,2.332-.367,5.285,5.285,0,0,1,2.228.624,6.5,6.5,0,0,1,1.937,1.622,8.969,8.969,0,0,1,1.464,2.64,11.694,11.694,0,0,1,.364,1.165,10.546,10.546,0,0,1,.233,1.2,9.679,9.679,0,0,1,.083,1.209,7.485,7.485,0,0,1-.086,1.181l-2.07-.4a4.626,4.626,0,0,0,.064-.768,6.415,6.415,0,0,0-.059-.87,8.19,8.19,0,0,0-.176-.918,8.707,8.707,0,0,0-.283-.916,6.448,6.448,0,0,0-.951-1.761,4.325,4.325,0,0,0-1.25-1.106,3.367,3.367,0,0,0-1.454-.437,3.746,3.746,0,0,0-1.56.24,3.83,3.83,0,0,0-1.383.864,3.6,3.6,0,0,0-.85,1.315,4.4,4.4,0,0,0-.26,1.665,6.395,6.395,0,0,0,1.11,3.3,4.07,4.07,0,0,0,.938.965,3.045,3.045,0,0,0,1.1.507,2.881,2.881,0,0,0,1.2.018l-1.423-3.842,1.837-.68,2.165,5.849-.008,0,.011,0a6.093,6.093,0,0,1-1.6.718,5.2,5.2,0,0,1-1.642.191,5.064,5.064,0,0,1-1.6-.339,5.409,5.409,0,0,1-1.477-.869,6.751,6.751,0,0,1-1.272-1.4,8.735,8.735,0,0,1-.984-1.933,8.378,8.378,0,0,1-.566-2.914,6.53,6.53,0,0,1,.469-2.515,5.648,5.648,0,0,1,1.352-1.968A6.021,6.021,0,0,1,590.772,232.888Z" transform="translate(-319.084 -143.191)" fill="#fff"></path><path id="Path_6851" data-name="Path 6851" d="M596.642,249.434a5.757,5.757,0,0,1,2.36-.079,5.286,5.286,0,0,1,2.133.891,6.5,6.5,0,0,1,1.724,1.849,8.957,8.957,0,0,1,1.131,2.8,11.8,11.8,0,0,1,.217,1.2,10.206,10.206,0,0,1,.085,1.221,9.72,9.72,0,0,1-.065,1.21,7.293,7.293,0,0,1-.232,1.161l-2-.652a4.636,4.636,0,0,0,.158-.755,6.5,6.5,0,0,0,.048-.871,8.2,8.2,0,0,0-.062-.933,8.745,8.745,0,0,0-.168-.944,6.428,6.428,0,0,0-.729-1.863,4.309,4.309,0,0,0-1.1-1.251,3.366,3.366,0,0,0-1.39-.612,3.739,3.739,0,0,0-1.577.048,3.823,3.823,0,0,0-1.479.688,3.616,3.616,0,0,0-1,1.2,4.416,4.416,0,0,0-.462,1.62,6.424,6.424,0,0,0,.7,3.414,4.16,4.16,0,0,0,.813,1.073,3.071,3.071,0,0,0,1.025.637,2.892,2.892,0,0,0,1.193.166l-.941-3.988,1.906-.45,1.432,6.069-.007,0,.009.006a6.1,6.1,0,0,1-1.678.516,5.24,5.24,0,0,1-1.653-.012,5.059,5.059,0,0,1-1.548-.533,5.377,5.377,0,0,1-1.36-1.043,6.738,6.738,0,0,1-1.09-1.547,8.714,8.714,0,0,1-.74-2.038,8.4,8.4,0,0,1-.206-2.962,6.537,6.537,0,0,1,.774-2.438,5.638,5.638,0,0,1,1.583-1.789A6.017,6.017,0,0,1,596.642,249.434Z" transform="translate(-319.286 -143.852)" fill="#fff"></path><path id="Path_6852" data-name="Path 6852" d="M606.169,266.665l1.187,9.918-2.071.248-.9-7.556-2.325.279.8,6.691-1.945.232-.8-6.69-3.241.387.923,7.712-2.064.247-1.206-10.073Z" transform="translate(-319.385 -144.538)" fill="#fff"></path><path id="Path_6853" data-name="Path 6853" d="M599.482,282.642q-.35.644-.628,1.305a10.347,10.347,0,0,0-.466,1.37,10.73,10.73,0,0,0-.28,1.487,12.52,12.52,0,0,0-.079,1.656,10.134,10.134,0,0,0,.168,1.8,4.443,4.443,0,0,0,.4,1.206,1.717,1.717,0,0,0,.593.672,1.349,1.349,0,0,0,.739.2,1.17,1.17,0,0,0,1-.549,2.9,2.9,0,0,0,.345-1.649,8.744,8.744,0,0,0-.081-1.027q-.072-.539-.157-1.09c-.056-.366-.109-.728-.157-1.084a8.581,8.581,0,0,1-.08-1.009,5.6,5.6,0,0,1,.178-1.516,4.035,4.035,0,0,1,.587-1.293,3.007,3.007,0,0,1,1-.9,2.923,2.923,0,0,1,1.413-.353,3.557,3.557,0,0,1,.955.116,3.1,3.1,0,0,1,.911.405,3.641,3.641,0,0,1,.815.734,4.486,4.486,0,0,1,.659,1.1,7.239,7.239,0,0,1,.449,1.494,11.008,11.008,0,0,1,.185,1.936,14.662,14.662,0,0,1-.06,1.585q-.074.8-.219,1.554a14.908,14.908,0,0,1-.355,1.458,12.2,12.2,0,0,1-.47,1.305l-1.938-1.012a11.218,11.218,0,0,0,.384-1.072q.174-.573.3-1.2c.083-.417.148-.846.193-1.29a11.7,11.7,0,0,0,.057-1.355,7.558,7.558,0,0,0-.169-1.615,3.529,3.529,0,0,0-.38-1,1.336,1.336,0,0,0-.5-.513,1.131,1.131,0,0,0-.547-.137,1.012,1.012,0,0,0-.851.486,2.506,2.506,0,0,0-.311,1.446,8.334,8.334,0,0,0,.071.9q.065.506.141,1.064c.051.371.1.751.142,1.138s.069.763.075,1.128a6.614,6.614,0,0,1-.2,1.838,3.86,3.86,0,0,1-.643,1.351,2.8,2.8,0,0,1-1.03.835,3.294,3.294,0,0,1-1.365.3,3.475,3.475,0,0,1-1.813-.44,3.964,3.964,0,0,1-1.356-1.314,6.739,6.739,0,0,1-.86-2.076,12.183,12.183,0,0,1-.326-2.719,14.981,14.981,0,0,1,.092-1.938,14.412,14.412,0,0,1,.324-1.817,13.507,13.507,0,0,1,.521-1.66,12.125,12.125,0,0,1,.678-1.463Z" transform="translate(-319.44 -145.12)" fill="#fff"></path><path id="Path_6854" data-name="Path 6854" d="M605.064,303.523l.445-4.307,2.076.214-1.135,10.98-2.075-.214.446-4.307-9.592-.991.244-2.366Z" transform="translate(-319.413 -145.822)" fill="#fff"></path><path id="Path_6855" data-name="Path 6855" d="M602.543,329.073l-.733,2.264-5.382,2.738,2.758,5.372-.733,2.263L587.294,338.1l.732-2.263,8.025,2.6-2.594-5.319,5.218-2.791-8.025-2.6.732-2.263Z" transform="translate(-319.1 -146.858)" fill="#fff"></path><path id="Path_6856" data-name="Path 6856" d="M596.342,347.177l-1,2.157-5.858-2.726a4.238,4.238,0,0,0-1.374-.4,2.73,2.73,0,0,0-1.224.147,2.81,2.81,0,0,0-1.039.7,5.086,5.086,0,0,0-1.253,2.691,2.809,2.809,0,0,0,.135,1.247,2.729,2.729,0,0,0,.676,1.03,4.268,4.268,0,0,0,1.19.794l5.858,2.726-1,2.156-6.117-2.846a5.464,5.464,0,0,1-1.741-1.24,4.482,4.482,0,0,1-.991-1.711,5.139,5.139,0,0,1-.178-2.09,8.394,8.394,0,0,1,2.073-4.457,5.142,5.142,0,0,1,1.714-1.21,4.478,4.478,0,0,1,1.948-.343,5.46,5.46,0,0,1,2.07.532Z" transform="translate(-318.906 -147.581)" fill="#fff"></path><path id="Path_6857" data-name="Path 6857" d="M581.43,358.786q-.64.354-1.231.761a10.349,10.349,0,0,0-1.131.9,10.854,10.854,0,0,0-1.036,1.1,12.293,12.293,0,0,0-.958,1.353,9.954,9.954,0,0,0-.828,1.606,4.393,4.393,0,0,0-.309,1.232,1.715,1.715,0,0,0,.136.887,1.35,1.35,0,0,0,.513.568,1.171,1.171,0,0,0,1.139.077,2.9,2.9,0,0,0,1.179-1.2,8.635,8.635,0,0,0,.485-.909c.154-.328.3-.663.455-1s.3-.672.453-1a8.28,8.28,0,0,1,.475-.892,5.565,5.565,0,0,1,.966-1.181,4.012,4.012,0,0,1,1.19-.773,3.028,3.028,0,0,1,1.329-.225,2.908,2.908,0,0,1,1.38.464,3.493,3.493,0,0,1,.742.612,3.1,3.1,0,0,1,.549.832,3.7,3.7,0,0,1,.291,1.058,4.451,4.451,0,0,1-.035,1.279,7.313,7.313,0,0,1-.426,1.5,11.1,11.1,0,0,1-.888,1.732,14.771,14.771,0,0,1-.9,1.3q-.491.631-1.021,1.191a14.786,14.786,0,0,1-1.084,1.036,11.959,11.959,0,0,1-1.1.847l-1.087-1.9q.444-.308.9-.7t.9-.848q.442-.46.858-.984a11.567,11.567,0,0,0,.778-1.111,7.519,7.519,0,0,0,.727-1.45,3.535,3.535,0,0,0,.22-1.051,1.322,1.322,0,0,0-.148-.7,1.152,1.152,0,0,0-.385-.41,1.013,1.013,0,0,0-.98-.048,2.5,2.5,0,0,0-1.04,1.051,7.979,7.979,0,0,0-.424.792q-.218.461-.454.972t-.493,1.036c-.171.35-.353.68-.545.99a6.576,6.576,0,0,1-1.161,1.44,3.84,3.84,0,0,1-1.268.792,2.818,2.818,0,0,1-1.318.149,3.27,3.27,0,0,1-1.311-.483,3.479,3.479,0,0,1-1.29-1.346,3.97,3.97,0,0,1-.436-1.839,6.758,6.758,0,0,1,.395-2.212,12.15,12.15,0,0,1,1.19-2.467,14.94,14.94,0,0,1,1.122-1.583,14.464,14.464,0,0,1,1.252-1.357,13.54,13.54,0,0,1,1.332-1.117,12.079,12.079,0,0,1,1.359-.868Z" transform="translate(-318.568 -148.09)" fill="#fff"></path><path id="Path_6858" data-name="Path 6858" d="M579.285,377.381l-1.423,1.925-9.433-6.972,1.423-1.925Z" transform="translate(-318.356 -148.631)" fill="#fff"></path><path id="Path_6859" data-name="Path 6859" d="M570.678,379.145a5.8,5.8,0,0,1,1.454,1.89,5.383,5.383,0,0,1,.523,2.27,6.511,6.511,0,0,1-.489,2.478,8.752,8.752,0,0,1-1.576,2.512,11.22,11.22,0,0,1-1.944,1.8,8.362,8.362,0,0,1-2.125,1.1l-.641-2.009a3.868,3.868,0,0,0,.737-.3,6.277,6.277,0,0,0,.763-.471,8.33,8.33,0,0,0,.742-.6,7.785,7.785,0,0,0,.673-.682,6.814,6.814,0,0,0,1.122-1.719,4.41,4.41,0,0,0,.392-1.653,3.36,3.36,0,0,0-.3-1.495,3.671,3.671,0,0,0-.955-1.253,3.812,3.812,0,0,0-1.423-.8,3.543,3.543,0,0,0-1.576-.1,4.538,4.538,0,0,0-1.627.614,6.544,6.544,0,0,0-1.566,1.35,6.96,6.96,0,0,0-.618.825,8.191,8.191,0,0,0-.492.88,7.723,7.723,0,0,0-.365.9,7.4,7.4,0,0,0-.238.887l-2.079-.354a8.077,8.077,0,0,1,.73-2.31,9.993,9.993,0,0,1,1.494-2.251,9.785,9.785,0,0,1,2.437-2.088,6.535,6.535,0,0,1,2.471-.875,5.31,5.31,0,0,1,2.364.231A6.223,6.223,0,0,1,570.678,379.145Z" transform="translate(-317.987 -148.916)" fill="#fff"></path><path id="Path_6860" data-name="Path 6860" d="M553.06,405.083l-7.911,6.1-1.273-1.653,6.026-4.645-1.43-1.855-5.337,4.115-1.2-1.551,5.338-4.114-1.993-2.586-6.151,4.741-1.27-1.646,8.036-6.194Z" transform="translate(-317.15 -149.632)" fill="#fff"></path><path id="Path_6861" data-name="Path 6861" d="M542.16,413.5l-2.24,1.385-7.839-5.669,1.571,9.546-2.24,1.385-1.8-12.679,2-1.239Z" transform="translate(-316.825 -150.044)" fill="#fff"></path><path id="Path_6862" data-name="Path 6862" d="M527.412,422.108l-8.99,4.352-.909-1.877,6.848-3.317-1.02-2.107-6.065,2.937-.854-1.764,6.066-2.936-1.423-2.938-6.991,3.385-.906-1.871,9.131-4.421Z" transform="translate(-316.176 -150.254)" fill="#fff"></path><path id="Path_6863" data-name="Path 6863" d="M513.3,428.628l-2.245.789-8.165-1.188,1.269,3.611-2.245.789-3.887-11.066,2.244-.789,1.784,5.076,8.157,1.166-3.044-8.666,2.244-.788Z" transform="translate(-315.579 -150.491)" fill="#fff"></path><path id="Path_6864" data-name="Path 6864" d="M492.269,433.063l4.222-.964.465,2.033-10.761,2.46-.465-2.034,4.221-.964-2.149-9.4,2.319-.529Z" transform="translate(-315.094 -150.732)" fill="#fff"></path><path id="Path_6865" data-name="Path 6865" d="M467.73,433.123a5.954,5.954,0,0,1-.437,2.441,5.5,5.5,0,0,1-1.33,1.923,6.224,6.224,0,0,1-2.09,1.271,8.8,8.8,0,0,1-5.466.113,6.207,6.207,0,0,1-2.145-1.182,5.51,5.51,0,0,1-1.409-1.866,5.947,5.947,0,0,1-.538-2.421,6.044,6.044,0,0,1,.437-2.46A5.586,5.586,0,0,1,456.081,429a6.249,6.249,0,0,1,2.093-1.293,8.588,8.588,0,0,1,5.466-.113,6.275,6.275,0,0,1,2.141,1.2,5.6,5.6,0,0,1,1.409,1.888A6.049,6.049,0,0,1,467.73,433.123Zm-2.378.05a3.951,3.951,0,0,0-.36-1.629,3.6,3.6,0,0,0-.934-1.223,4.093,4.093,0,0,0-1.39-.764,5.489,5.489,0,0,0-3.444.072,4.033,4.033,0,0,0-1.352.82,3.658,3.658,0,0,0-.883,1.26,3.93,3.93,0,0,0-.3,1.643,3.861,3.861,0,0,0,.364,1.621,3.541,3.541,0,0,0,.933,1.2,4,4,0,0,0,1.386.733,5.764,5.764,0,0,0,3.444-.071,4.044,4.044,0,0,0,1.357-.791,3.47,3.47,0,0,0,.882-1.237A3.9,3.9,0,0,0,465.352,433.173Z" transform="translate(-313.854 -150.871)" fill="#fff"></path><path id="Path_6866" data-name="Path 6866" d="M449.084,438.954l-10.449-.942.187-2.078,8.079.729.277-3.057-6.862-.62.177-1.951,6.861.619.414-4.6,2.37.214Z" transform="translate(-313.236 -150.866)" fill="#fff"></path><path id="Path_6867" data-name="Path 6867" d="M417.441,431.415l4.155,1.219-.588,2-10.592-3.107.588-2,4.154,1.219,2.715-9.253,2.282.67Z" transform="translate(-312.123 -150.646)" fill="#fff"></path><path id="Path_6868" data-name="Path 6868" d="M405.384,429.707l-2.193-.923,1.188-2.822-6.722-2.831-1.188,2.822-2.2-.927,4.553-10.809,2.2.926-2.575,6.114,6.723,2.831,2.575-6.113,2.192.923Z" transform="translate(-311.486 -150.359)" fill="#fff"></path><path id="Path_6869" data-name="Path 6869" d="M388.841,422.28l-8.709-4.888,1.021-1.819,6.635,3.724,1.146-2.042-5.877-3.3.958-1.708,5.878,3.3,1.6-2.846-6.774-3.8,1.018-1.813,8.848,4.966Z" transform="translate(-310.928 -150.078)" fill="#fff"></path><path id="Path_6870" data-name="Path 6870" d="M367.354,397.424l-1.825,10.041-2.051-1.747,1.582-7.419-7.041,2.764-2.051-1.748,9.565-3.421,1.894-2.222,1.81,1.543Z" transform="translate(-309.975 -149.548)" fill="#fff"></path><path id="Path_6871" data-name="Path 6871" d="M352.829,396.1l-6.9-7.224,1.509-1.441,5.255,5.5,1.693-1.618-4.654-4.874,1.417-1.353,4.654,4.874,2.361-2.254-5.364-5.617,1.5-1.435L361.311,388Z" transform="translate(-309.579 -149.035)" fill="#fff"></path><path id="Path_6872" data-name="Path 6872" d="M340.03,381.511l-1.537-2,5.839-11.648,1.523,1.981-.992,1.947,4.176,5.431,2.118-.483,1.528,1.986Zm3.853-7.781-2.677,5.258,5.728-1.291Z" transform="translate(-309.285 -148.53)" fill="#fff"></path><path id="Path_6873" data-name="Path 6873" d="M332.483,371.246l-3.087-5.1a8.645,8.645,0,0,1-.971-2.149,4.548,4.548,0,0,1-.154-1.828,3.284,3.284,0,0,1,.608-1.5,4.467,4.467,0,0,1,1.319-1.17,4.761,4.761,0,0,1,1.144-.508,3.638,3.638,0,0,1,2.358.1,4.433,4.433,0,0,1,1.151.664l1.89-4.126,1.507,2.492-1.71,3.612.036.058,1.858,3.086,2.857-1.728,1.231,2.035Zm2.3-8.434a4.011,4.011,0,0,0-.746-.93,2.45,2.45,0,0,0-.817-.5,1.776,1.776,0,0,0-.859-.077,2.371,2.371,0,0,0-.867.327,1.832,1.832,0,0,0-.951,1.365,3.229,3.229,0,0,0,.594,2.017l1.888,3.121,3.647-2.205Z" transform="translate(-308.881 -148.048)" fill="#fff"></path><path id="Path_6874" data-name="Path 6874" d="M334.162,352.764a1.323,1.323,0,0,1-.563.141,1.359,1.359,0,0,1-.575-.113,1.691,1.691,0,0,1-.528-.366,2.489,2.489,0,0,1-.659-1.331,1.656,1.656,0,0,1,.031-.64,1.379,1.379,0,0,1,.26-.523,1.345,1.345,0,0,1,1.586-.391,1.746,1.746,0,0,1,.527.362,2.443,2.443,0,0,1,.659,1.332,1.8,1.8,0,0,1-.03.643,1.32,1.32,0,0,1-.708.886Z" transform="translate(-309.022 -147.803)" fill="#fff"></path><path id="Path_6875" data-name="Path 6875" d="M315.591,336.234l-1.744-6.018a7.346,7.346,0,0,1-.323-1.989,4.257,4.257,0,0,1,.252-1.546,2.691,2.691,0,0,1,.743-1.086,3.077,3.077,0,0,1,3.223-.485,3.11,3.11,0,0,1,.861-1.507,3.724,3.724,0,0,1,1.561-.867,3.827,3.827,0,0,1,1.5-.148,2.908,2.908,0,0,1,1.316.485,3.868,3.868,0,0,1,1.085,1.155,7.118,7.118,0,0,1,.8,1.859l2,6.882Zm2.326-8.151q-.086-.3-.145-.583a1.481,1.481,0,0,0-1.193-.178,1.133,1.133,0,0,0-.809.754,2.548,2.548,0,0,0,.071,1.5l1.1,3.791,2.314-.671Zm4.939-1.478a2.243,2.243,0,0,0-.8-1.287,1.426,1.426,0,0,0-1.256-.156,1.443,1.443,0,0,0-.985.806,2.213,2.213,0,0,0,0,1.519l1.35,4.656,3.042-.882Z" transform="translate(-308.301 -146.744)" fill="#fff"></path><path id="Path_6876" data-name="Path 6876" d="M311.289,320.447l-.4-2.345,6.368-1.089a4.257,4.257,0,0,0,1.357-.452,2.7,2.7,0,0,0,.923-.816,2.784,2.784,0,0,0,.459-1.163,5.081,5.081,0,0,0-.5-2.926,2.785,2.785,0,0,0-.821-.948,2.717,2.717,0,0,0-1.141-.464,4.263,4.263,0,0,0-1.43.024l-6.369,1.089-.4-2.345,6.65-1.137a5.47,5.47,0,0,1,2.137.031,4.464,4.464,0,0,1,1.788.843,5.117,5.117,0,0,1,1.335,1.619,8.382,8.382,0,0,1,.828,4.845,5.122,5.122,0,0,1-.721,1.969,4.458,4.458,0,0,1-1.406,1.39,5.428,5.428,0,0,1-2.006.739Z" transform="translate(-308.135 -146.16)" fill="#fff"></path><path id="Path_6877" data-name="Path 6877" d="M317.354,299.327l-8.491,5.662-.167-2.69,6.436-4.015-6.879-3.145-.166-2.69,9.106,4.5,2.913-.181.147,2.374Z" transform="translate(-308.086 -145.556)" fill="#fff"></path><path id="Path_6878" data-name="Path 6878" d="M311.375,271.019l-.566,4.293-2.068-.273,1.441-10.944,2.069.273-.566,4.292,9.56,1.259-.31,2.359Z" transform="translate(-308.112 -144.437)" fill="#fff"></path><path id="Path_6879" data-name="Path 6879" d="M311.111,259.885l.489-2.343,11.482,2.4-.489,2.344Z" transform="translate(-308.205 -144.179)" fill="#fff"></path><path id="Path_6880" data-name="Path 6880" d="M318.09,254.48a5.788,5.788,0,0,1-2.109-1.112,5.371,5.371,0,0,1-1.421-1.845,6.508,6.508,0,0,1-.589-2.456,8.744,8.744,0,0,1,.386-2.94,11.266,11.266,0,0,1,1.018-2.443,8.381,8.381,0,0,1,1.473-1.887l1.42,1.559a3.785,3.785,0,0,0-.546.579,6.326,6.326,0,0,0-.5.745,8.21,8.21,0,0,0-.426.853,7.753,7.753,0,0,0-.328.9,6.751,6.751,0,0,0-.3,2.03,4.429,4.429,0,0,0,.331,1.667,3.354,3.354,0,0,0,.9,1.232,3.672,3.672,0,0,0,1.39.741,3.821,3.821,0,0,0,1.626.134,3.55,3.55,0,0,0,1.476-.564,4.529,4.529,0,0,0,1.223-1.236,6.534,6.534,0,0,0,.861-1.879,6.975,6.975,0,0,0,.218-1.008,8.029,8.029,0,0,0,.08-1,7.73,7.73,0,0,0-.043-.971,7.293,7.293,0,0,0-.153-.9l2.037-.544a8.094,8.094,0,0,1,.3,2.4,10.056,10.056,0,0,1-.421,2.669,9.771,9.771,0,0,1-1.344,2.913,6.561,6.561,0,0,1-1.882,1.825,5.292,5.292,0,0,1-2.246.775A6.2,6.2,0,0,1,318.09,254.48Z" transform="translate(-308.318 -143.557)" fill="#fff"></path><path id="Path_6881" data-name="Path 6881" d="M317.753,236.1l.914-2.2,5.606,2.33-3.229-8.047,1.17-2.813,2.951,7.485,7.879-2.982-1.216,2.924-5.788,2.275.888,2.262,2.57,1.069-.913,2.2Z" transform="translate(-308.467 -142.909)" fill="#fff"></path><path id="Path_6882" data-name="Path 6882" d="M323.942,222.044l4.764-8.778,1.834,1-3.63,6.687,2.058,1.117,3.214-5.923,1.721.935L330.69,223l2.868,1.557,3.706-6.827,1.827.991-4.84,8.918Z" transform="translate(-308.711 -142.432)" fill="#fff"></path><path id="Path_6883" data-name="Path 6883" d="M335.247,206.906,332.8,210.48,331.08,209.3l6.233-9.11,1.722,1.178-2.446,3.573,7.959,5.444-1.344,1.964Z" transform="translate(-308.993 -141.916)" fill="#fff"></path><path id="Path_6884" data-name="Path 6884" d="M347.159,200.973q.689-.248,1.337-.556a10.369,10.369,0,0,0,1.259-.713,10.868,10.868,0,0,0,1.2-.924,12.26,12.26,0,0,0,1.16-1.184,9.88,9.88,0,0,0,1.071-1.454,4.379,4.379,0,0,0,.5-1.167,1.72,1.72,0,0,0,.007-.9,1.354,1.354,0,0,0-.418-.643,1.167,1.167,0,0,0-1.112-.256,2.893,2.893,0,0,0-1.354,1,8.852,8.852,0,0,0-.623.82q-.305.451-.608.917c-.2.31-.4.616-.605.914a8.569,8.569,0,0,1-.612.806,5.583,5.583,0,0,1-1.141,1.012,4.019,4.019,0,0,1-1.3.575,3.025,3.025,0,0,1-1.348.011,2.917,2.917,0,0,1-1.29-.676,3.544,3.544,0,0,1-.636-.721,3.129,3.129,0,0,1-.41-.91,3.667,3.667,0,0,1-.121-1.089,4.5,4.5,0,0,1,.237-1.257,7.3,7.3,0,0,1,.66-1.414,10.894,10.894,0,0,1,1.151-1.569,14.847,14.847,0,0,1,1.1-1.143q.586-.546,1.2-1.014t1.236-.852a12.111,12.111,0,0,1,1.22-.662l.773,2.045a11.308,11.308,0,0,0-1,.545q-.512.311-1.021.7t-1,.835a11.492,11.492,0,0,0-.944.974,7.586,7.586,0,0,0-.948,1.318,3.533,3.533,0,0,0-.384,1,1.34,1.34,0,0,0,.035.719,1.146,1.146,0,0,0,.316.466,1.014,1.014,0,0,0,.96.2,2.512,2.512,0,0,0,1.195-.873,8.344,8.344,0,0,0,.543-.716q.288-.421.6-.888t.651-.945q.337-.477.695-.891a6.594,6.594,0,0,1,1.375-1.237,3.832,3.832,0,0,1,1.378-.581,2.81,2.81,0,0,1,1.324.062,3.273,3.273,0,0,1,1.219.684,3.482,3.482,0,0,1,1.06,1.534,3.972,3.972,0,0,1,.138,1.885,6.778,6.778,0,0,1-.74,2.122,12.181,12.181,0,0,1-1.567,2.246,14.95,14.95,0,0,1-1.358,1.385,14.485,14.485,0,0,1-1.45,1.142,13.614,13.614,0,0,1-1.494.892,11.876,11.876,0,0,1-1.479.641Z" transform="translate(-309.428 -141.433)" fill="#fff"></path><path id="Path_6885" data-name="Path 6885" d="M362.785,185.021l-1.041.962-6.1-6.229,1.411-1.3Zm.184,1.218a1.189,1.189,0,0,1,1.7.032,1.23,1.23,0,0,1-1.8,1.666A1.19,1.19,0,0,1,362.969,186.239Z" transform="translate(-309.962 -141.059)" fill="#fff"></path></g></g><path id="iconmonstr-arrow-20" d="M42.98,1l-9.395,9.332,20.38,20.38H0V43.884H53.965l-20.38,20.38L42.98,73.6,79.2,37.3Z" transform="translate(1387.127 1568.626) rotate(-45)" fill="#fff"></path></g></svg>